<svg xmlns="http://www.w3.org/2000/svg" style="display:none">
<!-- QuadCOM icon set · 24px grid · 1.75 stroke · currentColor. Referenced as /assets/icons.svg#i-name -->
<symbol id="i-home" viewBox="0 0 24 24" fill="none" stroke="currentColor" stroke-width="1.75" stroke-linejoin="round"><path d="M3.5 10.5 12 3.5l8.5 7"/><path d="M5.5 9v11h4.75v-6h3.5v6h4.75V9"/></symbol>
<symbol id="i-learn" viewBox="0 0 24 24" fill="none" stroke="currentColor" stroke-width="1.75" stroke-linejoin="round"><path d="M12 6.5C9.8 5 6.9 4.5 3.5 4.8v13.4c3.4-.3 6.3.2 8.5 1.8 2.2-1.6 5.1-2.1 8.5-1.8V4.8C17.1 4.5 14.2 5 12 6.5Z"/><path d="M12 6.5V20"/></symbol>
<symbol id="i-desk" viewBox="0 0 24 24" fill="currentColor"><path d="M12 1.8 15.1 4.9 12 8 8.9 4.9Z"/><path d="M6.4 7.4 11.2 12.2 6.4 17 1.6 12.2Z"/><path d="M17.6 7.4 22.4 12.2 17.6 17 12.8 12.2Z"/><path d="M12 13 16.8 17.8 12 22.6 7.2 17.8Z"/></symbol>
<symbol id="i-glossary" viewBox="0 0 24 24" fill="none" stroke="currentColor" stroke-width="1.75" stroke-linecap="round"><circle cx="10.5" cy="10.5" r="6"/><path d="m15 15 5.5 5.5"/><path d="M8 9h5M8 12h3.5"/></symbol>
<symbol id="i-more" viewBox="0 0 24 24" fill="currentColor"><circle cx="5" cy="12" r="1.9"/><circle cx="12" cy="12" r="1.9"/><circle cx="19" cy="12" r="1.9"/></symbol>
<symbol id="i-flow" viewBox="0 0 24 24" fill="none" stroke="currentColor" stroke-width="1.75"><circle cx="6" cy="17.5" r="2.5"/><circle cx="12" cy="8.5" r="2.5"/><circle cx="18.5" cy="5" r="2.2"/><path d="m7.4 15.4 3.2-4.8M14.2 7.3l2.4-1.3"/></symbol>
<symbol id="i-mark" viewBox="0 0 24 24" fill="none" stroke="currentColor" stroke-width="1.75" stroke-linejoin="round"><path d="M12 2.8 21.2 12 12 21.2 2.8 12Z"/><path d="M12 7.8 16.2 12 12 16.2 7.8 12Z"/></symbol>
<symbol id="i-data" viewBox="0 0 24 24" fill="none" stroke="currentColor" stroke-width="1.75" stroke-linejoin="round"><path d="M12 3.5 21 8l-9 4.5L3 8Z"/><path d="m3 12 9 4.5 9-4.5"/><path d="m3 16 9 4.5 9-4.5"/></symbol>
<symbol id="i-close" viewBox="0 0 24 24" fill="none" stroke="currentColor" stroke-width="1.9" stroke-linecap="round"><path d="M6 6l12 12M18 6 6 18"/></symbol>
<symbol id="i-link" viewBox="0 0 24 24" fill="none" stroke="currentColor" stroke-width="1.75" stroke-linecap="round"><path d="M10 14a4 4 0 0 0 5.7 0l3-3a4 4 0 0 0-5.7-5.7l-1.2 1.2"/><path d="M14 10a4 4 0 0 0-5.7 0l-3 3a4 4 0 0 0 5.7 5.7l1.2-1.2"/></symbol>
<symbol id="i-check" viewBox="0 0 24 24" fill="none" stroke="currentColor" stroke-width="2" stroke-linecap="round" stroke-linejoin="round"><path d="m5 12.5 4.5 4.5L19 7.5"/></symbol>
<symbol id="i-offline" viewBox="0 0 24 24" fill="none" stroke="currentColor" stroke-width="1.75" stroke-linecap="round"><path d="M2.5 8.8A15 15 0 0 1 7 6.1M11 5a15 15 0 0 1 10.5 3.8M5.5 12.2a10 10 0 0 1 4.3-2.3M14.7 10.3a10 10 0 0 1 3.8 1.9M8.8 15.4a5 5 0 0 1 6.4 0"/><circle cx="12" cy="19" r="1.1" fill="currentColor"/><path d="M3 3l18 18"/></symbol>
<symbol id="i-refresh" viewBox="0 0 24 24" fill="none" stroke="currentColor" stroke-width="1.75" stroke-linecap="round" stroke-linejoin="round"><path d="M20 11a8 8 0 1 0-2.3 5.7"/><path d="M20 4v7h-7"/></symbol>
<symbol id="i-up" viewBox="0 0 24 24" fill="none" stroke="currentColor" stroke-width="1.9" stroke-linecap="round" stroke-linejoin="round"><path d="M12 19V5M6 11l6-6 6 6"/></symbol>
<symbol id="i-skin" viewBox="0 0 24 24" fill="none" stroke="currentColor" stroke-width="1.75"><circle cx="12" cy="12" r="8.5"/><path d="M12 3.5v17M12 12 18 6M12 12l6 6"/></symbol>
</svg>
